<svg xmlns="http://www.w3.org/2000/svg" viewBox="-93.6 222.8 55 46.8" enable-background="new -93.6 222.8 55 46.8"><path fill="#00384d" d="m-38.6 238.4l-27.5-15.6-27.5 15.6 28 23.1z"/><path fill="#fff" d="m-86.8 227.9h41.4v38.1h-41.4z"/><path d="m-38.6 238.4l-54.3 30.8c.3.2.7.4 1.2.4h51.3c1 0 1.9-.9 1.9-1.9v-29.3z" fill="#0080ad"/><g fill="#00384d"><path d="m-80.5 236.3h28.9v1.2h-28.9z"/><path d="m-80.5 240.8h28.9v1.2h-28.9z"/><path d="m-80.5 245.3h19.3v1.2h-19.3z"/></g><path d="m-93.6 238.4l54.3 30.8c-.3.2-.7.4-1.2.4h-51.3c-1 0-1.9-.9-1.9-1.9v-29.3h.1" fill="#005e80"/></svg>
