<svg xmlns="http://www.w3.org/2000/svg" viewBox="0 0 512 512"><path fill="#008cdb" d="M285.8 158c-20.5-7.9-29.6-14.8-29.6-28.7 0-10.1 7.8-22.3 28.1-22.3 13.5 0 23.4 4.4 28.3 7.1l5.3-15.7c-6.6-3.8-17.7-7.3-32.9-7.3-29 0-48.2 17.2-48.2 40.4 0 21 15 33.6 39.3 42.2 20.1 7.7 28.1 15.7 28.1 29.6 0 15-11.5 25.4-31.2 25.4-13.3 0-25.9-4.4-34.5-9.7l-4.9 16.2c7.9 5.3 23.6 9.5 38 9.5 35.2 0 52.2-19.9 52.2-42.9 0-21.9-12.8-34.1-38-43.8zM71.1 389.6c-7 0-12.6 5.6-12.6 12.6s5.7 12.6 12.6 12.6c7 0 12.6-5.7 12.6-12.6 0-6.9-5.7-12.6-12.6-12.6zm290.7-206.8c4.4 1.1 9.8 1.3 15.5 1.3 18.8 0 35.3-5.6 45.5-16.4 7.5-7.7 11.5-18.3 11.5-31.8 0-13.3-4.8-24.1-13-31.2-8.9-8-22.8-12.4-41.8-12.4-15.5 0-27.6 1.4-36.9 2.9v147.3h19.2v-59.7zm.1-15.7v-58c3.3-.8 9.7-1.5 18.1-1.5 21.2 0 35.1 9.5 35.1 29.2 0 20.5-14.2 31.8-37.4 31.8-6.4 0-11.7-.4-15.8-1.5zM197.7 378.7l-82.1-115H97.7v145.6h17.9V294.4l82.2 114.9h17.8V263.7h-17.9v115zm133.4-99.9h42.1v130.5h17.9V278.8h42.1v-15.1H331.1v15.1zm-95.2 130.5h78v-15.1h-60.2v-50.9h53.6v-15.1h-53.6v-49.4h60.2v-15.1h-78v145.6zM148.7 93.4l-50.6 149H118l15.5-46.8v-.1h52.7l15.9 46.9h20.6l-50.8-149h-23.2zm-11.2 87.1l14.6-43.1c2.9-9.1 5.3-18.2 7.5-27h.4c2.2 8.6 4.4 17.5 7.7 27.2l14.6 42.9h-44.8z"/></svg>