<svg xmlns="http://www.w3.org/2000/svg" width="512" height="512" viewBox="0 0 512 512"><g fill="#008cdb"><path d="M377.641 221.481h-21.366l-8.222 49.312h19.726c14.793-1.65 27.947-6.582 29.588-34.52-.001-9.86-8.215-14.792-19.726-14.792z"/><path d="M256 131.069C123.446 131.069 16 187 16 256c0 68.991 107.446 124.931 240 124.931 132.544 0 240-55.939 240-124.931 0-69-107.456-124.931-240-124.931zM150.794 295.45h-29.588l-6.581 34.519H83.397l26.297-133.153h60.823c26.297 1.65 39.451 14.803 39.451 37.81.001 39.459-31.227 62.465-59.174 60.824zm118.358 0l11.504-60.825c1.641-8.212 1.641-13.144-9.862-13.144h-24.656l-14.794 73.969h-31.237l26.307-133.153h31.228l-6.572 34.519h29.588c26.297 1.65 36.158 14.803 32.878 31.238l-11.512 67.396h-32.872zm101.916 0h-29.587l-6.583 34.519h-31.227l26.297-133.153h60.825c26.297 1.65 39.449 14.803 39.449 37.81.001 39.459-31.235 62.465-59.174 60.824z"/><path d="M157.366 221.481H136l-8.222 49.312h19.724c14.795-1.65 27.948-6.582 29.589-34.52 0-9.86-8.213-14.792-19.725-14.792z"/></g></svg>