<?xml version="1.0" encoding="utf-8"?>
<!-- Generator: Adobe Illustrator 19.2.0, SVG Export Plug-In . SVG Version: 6.00 Build 0)  -->
<svg version="1.1" id="Layer_1" xmlns="http://www.w3.org/2000/svg" xmlns:xlink="http://www.w3.org/1999/xlink" x="0px" y="0px"
	 viewBox="0 0 60 60" style="enable-background:new 0 0 60 60;" xml:space="preserve">
<style type="text/css">
	.st0{fill:#CDCDCD;}
	.st1{fill:#77BBFF;}
</style>
<g>
	<path class="st0" d="M10.9,34.4l-6.8-3.1v-1.2l6.8-3.3v1.7l-4.9,2.1v0l4.9,2V34.4z"/>
	<path class="st1" d="M20.6,34.9h-2.2l-1.4-2.7c-0.1-0.1-0.1-0.3-0.2-0.6h0c0,0.1-0.1,0.3-0.2,0.6l-1.5,2.7h-2.3l2.7-4.2l-2.4-4.2
		h2.3l1.2,2.5c0.1,0.2,0.2,0.4,0.3,0.7h0c0-0.2,0.1-0.4,0.3-0.7l1.3-2.5h2.1L18,30.6L20.6,34.9z"/>
	<path class="st1" d="M29,34.9H27L26.4,33h-3l-0.6,1.9h-2.1l3.1-8.4H26L29,34.9z M25.9,31.5L25,28.7c-0.1-0.2-0.1-0.5-0.1-0.8h0
		c0,0.2-0.1,0.5-0.1,0.7l-0.9,2.8H25.9z"/>
	<path class="st1" d="M39.6,34.9h-1.9v-5c0-0.5,0-1.1,0.1-1.8h0c-0.1,0.5-0.2,0.9-0.3,1.1l-2,5.7H34l-2-5.7
		c-0.1-0.2-0.1-0.5-0.3-1.2h-0.1c0.1,0.8,0.1,1.6,0.1,2.2v4.6h-1.7v-8.4h2.8l1.7,5c0.1,0.4,0.2,0.8,0.3,1.2h0
		c0.1-0.5,0.2-0.9,0.3-1.2l1.7-5h2.7V34.9z"/>
	<path class="st1" d="M46.6,34.9h-5v-8.4h1.9v6.9h3.1V34.9z"/>
	<path class="st0" d="M55.5,31.2l-6.8,3.1v-1.7l4.9-2v0l-4.9-2.1v-1.7l6.8,3.3V31.2z"/>
</g>
</svg>
