<?xml version="1.0" encoding="iso-8859-1"?>
<!-- Generator: Adobe Illustrator 19.0.0, SVG Export Plug-In . SVG Version: 6.00 Build 0)  -->
<svg version="1.1" id="Layer_1" xmlns="http://www.w3.org/2000/svg" xmlns:xlink="http://www.w3.org/1999/xlink" x="0px" y="0px"
	 viewBox="0 0 512 512" style="enable-background:new 0 0 512 512;" xml:space="preserve">
<g>
	<path style="fill:#D95946;" d="M314.262,288.662c-12.359,82.097-74.152,126.234-153.6,126.234C71.503,414.897,0,345.159,0,256
		S71.503,97.103,160.662,97.103c43.255,0,81.214,12.359,108.579,38.841l-46.786,46.786c-15.007-15.89-37.076-23.834-61.793-23.834
		c-52.966,0-98.869,44.138-98.869,97.103s45.903,97.103,98.869,97.103c44.138,0,77.683-28.248,87.393-70.621h-89.159V220.69h155.366
		c1.766,10.593,2.648,23.834,2.648,35.31C316.91,267.476,316.028,278.069,314.262,288.662"/>
	<polygon style="fill:#D95946;" points="512,264.828 459.034,264.828 459.034,317.793 414.897,317.793 414.897,264.828 
		361.931,264.828 361.931,220.69 414.897,220.69 414.897,167.724 459.034,167.724 459.034,220.69 512,220.69 	"/>
</g>
<g>
</g>
<g>
</g>
<g>
</g>
<g>
</g>
<g>
</g>
<g>
</g>
<g>
</g>
<g>
</g>
<g>
</g>
<g>
</g>
<g>
</g>
<g>
</g>
<g>
</g>
<g>
</g>
<g>
</g>
</svg>
