<?xml version="1.0" encoding="UTF-8" standalone="no"?>
<!DOCTYPE svg PUBLIC "-//W3C//DTD SVG 1.1//EN" "http://www.w3.org/Graphics/SVG/1.1/DTD/svg11.dtd">
<svg version="1.1" xmlns="http://www.w3.org/2000/svg" xmlns:xlink="http://www.w3.org/1999/xlink" preserveAspectRatio="xMidYMid meet" viewBox="0 0 640 640" width="640" height="640"><defs><path d="M452.33 310.7C427.23 308.82 398 308.89 374.19 310.67C354.88 312.12 329.52 301.38 326.49 314.15C315.14 361.95 290.73 403.59 259.68 436.03C236.32 460.43 209.59 478.93 180.67 490.33C146.24 470.75 129.99 427.2 144.66 389.01C156.29 358.72 169.83 325.36 144.84 317.73C126.64 312.17 116.65 331.47 109.65 352.11C96.25 391.64 70.79 432.54 63.54 480.99C55.88 532.14 63.51 586.43 103.46 617.09C196.5 688.49 297.5 572.83 403.98 543.75C442.58 533.21 484.94 534.91 518.94 513.11C544.47 496.73 561.3 469.59 566.08 439.13C573.77 390.12 550.74 341.43 508.33 317.06C507.59 317.56 483.06 313 452.33 310.7Z" id="a36jIAjYIg"></path><path d="M326.49 314.15C315.14 361.95 290.73 403.59 259.68 436.03C236.32 460.43 209.59 478.93 180.67 490.33C146.24 470.75 129.98 427.2 144.65 389.01C156.29 358.72 169.83 325.36 144.83 317.73C126.64 312.17 116.65 331.47 109.65 352.11C96.25 391.64 70.79 432.54 63.54 480.99C55.88 532.14 63.51 586.43 103.46 617.09C196.5 688.49 297.5 572.83 403.98 543.75C442.58 533.21 484.94 534.91 518.94 513.11C544.47 496.73 561.3 469.59 566.08 439.13C573.77 390.12 550.74 341.43 508.33 317.06" id="b1ZG6zbeFL"></path><path d="M411.9 123.51L486.7 292.48L576.34 -0.27L247.23 -0.27L336.66 291.96L411.9 123.51Z" id="ca7eekCir"></path><path d="M411.9 123.51L486.7 292.48L576.34 -0.27L247.23 -0.27L336.66 291.96L411.9 123.51Z" id="b8lEpMGgs"></path><path d="M321.14 252.31C290 252.31 264.75 280.26 264.75 314.74C264.75 349.23 290 377.18 321.14 377.18C352.28 377.18 377.53 349.23 377.53 314.74C377.53 280.26 352.28 252.31 321.14 252.31Z" id="bfRh5hpAX"></path><path d="M321.14 252.31C290 252.31 264.75 280.26 264.75 314.74C264.75 349.23 290 377.18 321.14 377.18C352.28 377.18 377.53 349.23 377.53 314.74C377.53 280.26 352.28 252.31 321.14 252.31Z" id="c2do8ej0EV"></path><path d="M504.83 252.31C473.68 252.31 448.44 280.26 448.44 314.74C448.44 349.23 473.68 377.18 504.83 377.18C535.97 377.18 561.21 349.23 561.21 314.74C561.21 280.26 535.97 252.31 504.83 252.31Z" id="c2oVrjOliv"></path><path d="M504.83 252.31C473.68 252.31 448.44 280.26 448.44 314.74C448.44 349.23 473.68 377.18 504.83 377.18C535.97 377.18 561.21 349.23 561.21 314.74C561.21 280.26 535.97 252.31 504.83 252.31Z" id="c2pe38GdFs"></path><path d="M136.76 252.76C105.62 252.76 80.37 280.71 80.37 315.19C80.37 349.67 105.62 377.63 136.76 377.63C167.9 377.63 193.15 349.67 193.15 315.19C193.15 280.71 167.9 252.76 136.76 252.76Z" id="fjqoWSDDk"></path><path d="M136.76 252.76C105.62 252.76 80.37 280.71 80.37 315.19C80.37 349.67 105.62 377.63 136.76 377.63C167.9 377.63 193.15 349.67 193.15 315.19C193.15 280.71 167.9 252.76 136.76 252.76Z" id="bzb8LZ3L7"></path></defs><g><g><g><use xlink:href="#a36jIAjYIg" opacity="1" fill="#99425b" fill-opacity="1"></use><g><use xlink:href="#a36jIAjYIg" opacity="1" fill-opacity="0" stroke="#ffffff" stroke-width="20" stroke-opacity="1"></use></g></g><g><use xlink:href="#b1ZG6zbeFL" opacity="1" fill="#000000" fill-opacity="0"></use><g><use xlink:href="#b1ZG6zbeFL" opacity="1" fill-opacity="0" stroke="#ffffff" stroke-width="20" stroke-opacity="1"></use></g></g><g><use xlink:href="#ca7eekCir" opacity="1" fill="#99425b" fill-opacity="1"></use><g><use xlink:href="#ca7eekCir" opacity="1" fill-opacity="0" stroke="#000000" stroke-width="1" stroke-opacity="0"></use></g></g><g><use xlink:href="#b8lEpMGgs" opacity="1" fill="#000000" fill-opacity="0"></use><g><use xlink:href="#b8lEpMGgs" opacity="1" fill-opacity="0" stroke="#ffffff" stroke-width="20" stroke-opacity="1"></use></g></g><g><use xlink:href="#bfRh5hpAX" opacity="1" fill="#99425b" fill-opacity="1"></use><g><use xlink:href="#bfRh5hpAX" opacity="1" fill-opacity="0" stroke="#000000" stroke-width="1" stroke-opacity="0"></use></g></g><g><use xlink:href="#c2do8ej0EV" opacity="1" fill="#000000" fill-opacity="0"></use><g><use xlink:href="#c2do8ej0EV" opacity="1" fill-opacity="0" stroke="#ffffff" stroke-width="20" stroke-opacity="1"></use></g></g><g><use xlink:href="#c2oVrjOliv" opacity="1" fill="#99425b" fill-opacity="1"></use><g><use xlink:href="#c2oVrjOliv" opacity="1" fill-opacity="0" stroke="#ffffff" stroke-width="20" stroke-opacity="1"></use></g></g><g><use xlink:href="#c2pe38GdFs" opacity="1" fill="#000000" fill-opacity="0"></use><g><use xlink:href="#c2pe38GdFs" opacity="1" fill-opacity="0" stroke="#ffffff" stroke-width="20" stroke-opacity="1"></use></g></g><g><use xlink:href="#fjqoWSDDk" opacity="1" fill="#99425b" fill-opacity="1"></use><g><use xlink:href="#fjqoWSDDk" opacity="1" fill-opacity="0" stroke="#000000" stroke-width="1" stroke-opacity="0"></use></g></g><g><use xlink:href="#bzb8LZ3L7" opacity="1" fill="#000000" fill-opacity="0"></use><g><use xlink:href="#bzb8LZ3L7" opacity="1" fill-opacity="0" stroke="#ffffff" stroke-width="20" stroke-opacity="1"></use></g></g></g></g></svg>