<?xml version="1.0" encoding="utf-8"?>
<!-- Generator: Adobe Illustrator 19.1.0, SVG Export Plug-In . SVG Version: 6.00 Build 0)  -->
<svg version="1.1" id="Layer_1" xmlns="http://www.w3.org/2000/svg" xmlns:xlink="http://www.w3.org/1999/xlink" x="0px" y="0px"
	 viewBox="0 0 44.892 43.243" enable-background="new 0 0 44.892 43.243" xml:space="preserve">
<path fill="#7ACEF4" d="M2.853,10.157c-3.976,5.711-3.484,13.142-0.443,19.211c0.068,0.148,0.147,0.288,0.221,0.432
	c0.042,0.093,0.091,0.186,0.143,0.277c0.023,0.05,0.059,0.106,0.088,0.155c0.049,0.099,0.101,0.191,0.153,0.285
	c0.098,0.165,0.195,0.332,0.293,0.495c0.056,0.091,0.107,0.182,0.169,0.274c0.105,0.176,0.225,0.35,0.332,0.526
	c0.049,0.075,0.095,0.148,0.147,0.221c0.156,0.238,0.312,0.472,0.485,0.704c0,0.006,0.006,0.013,0.013,0.016
	c0.026,0.039,0.055,0.077,0.081,0.112c0.147,0.2,0.293,0.396,0.446,0.589c0.052,0.072,0.111,0.143,0.163,0.213
	c0.14,0.169,0.277,0.338,0.413,0.506c0.052,0.06,0.105,0.124,0.16,0.186c0.182,0.22,0.375,0.438,0.57,0.653
	c0,0.003,0.006,0.008,0.01,0.013c0.006,0.008,0.013,0.016,0.026,0.024c0.189,0.207,0.381,0.41,0.577,0.612
	c0.062,0.062,0.124,0.122,0.192,0.188c0.15,0.151,0.3,0.304,0.459,0.454c0.065,0.062,0.13,0.122,0.192,0.182
	c0.208,0.195,0.416,0.391,0.635,0.578c0.003,0.003,0.006,0.005,0.01,0.008c0.036,0.031,0.075,0.062,0.108,0.093
	c0.192,0.164,0.384,0.327,0.579,0.488c0.078,0.065,0.156,0.127,0.234,0.191c0.163,0.128,0.326,0.252,0.488,0.376
	c0.085,0.063,0.169,0.129,0.257,0.195c0.176,0.132,0.358,0.261,0.538,0.388c0.065,0.047,0.13,0.094,0.198,0.138
	c0.017,0.015,0.036,0.028,0.052,0.041c0.179,0.117,0.349,0.231,0.524,0.347c0.078,0.05,0.153,0.099,0.228,0.15
	c0.274,0.174,0.547,0.342,0.817,0.504c0.078,0.041,0.156,0.085,0.231,0.129c0.202,0.117,0.407,0.233,0.615,0.343
	c0.114,0.064,0.228,0.119,0.345,0.177c0.14,0.077,0.287,0.155,0.436,0.231c0.036,0.015,0.072,0.028,0.104,0.045
	c0.061,0.028,0.12,0.059,0.179,0.088c0.227,0.112,0.462,0.218,0.703,0.326c0.045,0.021,0.094,0.041,0.143,0.065
	c0.27,0.117,0.54,0.229,0.817,0.338c0.065,0.024,0.13,0.054,0.199,0.077c0.25,0.098,0.511,0.194,0.768,0.287
	c0.032,0.013,0.062,0.022,0.094,0.034c0.287,0.098,0.57,0.19,0.859,0.28c0.068,0.02,0.137,0.044,0.208,0.062
	c0.296,0.089,0.583,0.194,0.886,0.25c19.221,3.504,24.805-11.551,24.805-11.551c-4.692,6.107-13.018,7.72-20.904,5.926
	c-0.293-0.067-0.583-0.16-0.879-0.248c-0.068-0.02-0.147-0.042-0.215-0.067c-0.287-0.086-0.57-0.179-0.847-0.273
	c-0.039-0.013-0.081-0.028-0.12-0.044c-0.251-0.086-0.499-0.181-0.746-0.277c-0.068-0.029-0.14-0.054-0.208-0.08
	c-0.273-0.107-0.544-0.223-0.808-0.339c-0.059-0.021-0.107-0.045-0.163-0.068c-0.231-0.106-0.453-0.21-0.677-0.317
	c-0.068-0.029-0.13-0.062-0.199-0.096c-0.176-0.083-0.351-0.176-0.524-0.267c-0.12-0.062-0.238-0.119-0.352-0.183
	c-0.211-0.114-0.423-0.234-0.635-0.352c-0.065-0.044-0.137-0.082-0.212-0.122c-0.273-0.163-0.55-0.331-0.82-0.503
	c-0.078-0.049-0.15-0.098-0.222-0.148c-0.198-0.125-0.394-0.257-0.586-0.387c-0.062-0.044-0.123-0.09-0.189-0.135
	c-0.186-0.13-0.368-0.262-0.553-0.398c-0.078-0.061-0.16-0.123-0.244-0.185c-0.167-0.129-0.333-0.255-0.499-0.389
	c-0.071-0.06-0.146-0.119-0.218-0.177c-0.215-0.173-0.417-0.345-0.622-0.524c-0.019-0.021-0.049-0.039-0.072-0.057
	c-0.218-0.195-0.436-0.396-0.651-0.594c-0.065-0.062-0.12-0.119-0.186-0.178c-0.156-0.153-0.312-0.303-0.465-0.458
	c-0.065-0.065-0.124-0.125-0.186-0.187c-0.195-0.197-0.388-0.4-0.577-0.609c-0.01-0.008-0.019-0.018-0.029-0.029
	c-0.198-0.218-0.391-0.439-0.582-0.664c-0.052-0.061-0.101-0.122-0.153-0.181c-0.14-0.172-0.28-0.347-0.423-0.519
	c-0.045-0.067-0.098-0.13-0.149-0.195c-0.166-0.213-0.326-0.427-0.485-0.646c-4.376-5.97-5.955-14.209-2.455-20.971"/>
<path fill="#7ACEF4" d="M15.193,5.343c-2.882,4.135-2.722,9.672-0.479,14.048c0.371,0.733,0.794,1.444,1.27,2.12
	c0.43,0.619,0.905,1.351,1.482,1.848c0.202,0.228,0.42,0.449,0.644,0.672c0.055,0.055,0.111,0.109,0.169,0.167
	c0.215,0.207,0.433,0.411,0.658,0.609c0.006,0.008,0.02,0.017,0.026,0.024c0.003,0.002,0.006,0.005,0.006,0.005
	c0.251,0.222,0.505,0.432,0.769,0.637c0.062,0.044,0.117,0.093,0.179,0.137c0.26,0.204,0.527,0.399,0.798,0.591
	c0.01,0.003,0.016,0.01,0.029,0.015c0.117,0.085,0.241,0.163,0.368,0.244c0.056,0.036,0.114,0.078,0.17,0.112
	c0.199,0.128,0.394,0.249,0.596,0.368c0.029,0.015,0.059,0.031,0.088,0.046c0.169,0.103,0.349,0.203,0.528,0.294
	c0.061,0.038,0.123,0.067,0.185,0.101c0.124,0.062,0.247,0.127,0.368,0.19c0.016,0.008,0.039,0.018,0.059,0.026
	c0.254,0.125,0.511,0.241,0.765,0.356c0.062,0.024,0.114,0.046,0.173,0.07c0.208,0.089,0.42,0.177,0.628,0.257
	c0.094,0.031,0.182,0.068,0.27,0.099c0.192,0.068,0.388,0.135,0.58,0.199c0.095,0.031,0.179,0.057,0.264,0.084
	c0.273,0.087,0.55,0.197,0.84,0.243c14.834,2.46,18.267-8.967,18.267-8.967c-3.09,4.451-9.072,6.571-15.454,4.914
	c-0.287-0.073-0.566-0.155-0.84-0.244c-0.088-0.023-0.166-0.051-0.251-0.08c-0.198-0.064-0.397-0.13-0.589-0.202
	c-0.088-0.033-0.179-0.065-0.267-0.1c-0.212-0.083-0.423-0.164-0.628-0.255c-0.062-0.024-0.121-0.045-0.169-0.072
	c-0.264-0.114-0.524-0.236-0.778-0.358c-0.13-0.067-0.257-0.132-0.388-0.2c-0.078-0.039-0.153-0.077-0.221-0.112
	c-0.172-0.09-0.332-0.184-0.495-0.28c-0.039-0.021-0.078-0.041-0.117-0.063c-0.198-0.121-0.404-0.241-0.592-0.366
	c-0.065-0.038-0.121-0.08-0.183-0.119c-0.13-0.083-0.257-0.166-0.391-0.255c-0.27-0.187-0.534-0.386-0.798-0.584
	c-0.062-0.05-0.12-0.096-0.179-0.145c-2.8-2.204-5.015-5.219-6.063-8.633c-1.107-3.546-0.863-7.526,1.045-10.755"/>
<path fill="#7ACEF4" d="M25.567,1.747c-1.699,2.494-1.862,5.592-0.69,8.344c1.244,2.924,3.787,5.218,6.75,6.304
	c0.121,0.047,0.241,0.086,0.365,0.129c0.056,0.016,0.107,0.034,0.166,0.052c0.173,0.054,0.345,0.119,0.524,0.153
	c8.195,1.582,10.416-4.205,11.012-5.057c-1.951,2.803-5.223,3.476-9.238,2.5c-0.316-0.077-0.661-0.191-0.967-0.301
	c-0.391-0.138-0.778-0.299-1.156-0.477c-0.707-0.343-1.39-0.757-2.022-1.235C26.716,9.433,24.489,4.234,26.834,0"/>
<g>
</g>
<g>
</g>
<g>
</g>
<g>
</g>
<g>
</g>
<g>
</g>
</svg>
